<mxfile host="app.diagrams.net" agent="Mozilla/5.0 (X11; Ubuntu; Linux x86_64; rv:129.0) Gecko/20100101 Firefox/129.0" version="24.7.17">
  <diagram name="Page-1" id="y6rSs7brFoN-y7DdhA95">
    <mxGraphModel dx="1434" dy="790" grid="1" gridSize="10" guides="1" tooltips="1" connect="1" arrows="1" fold="1" page="1" pageScale="1" pageWidth="850" pageHeight="1100" math="0" shadow="0">
      <root>
        <mxCell id="0" />
        <mxCell id="1" parent="0" />
        <mxCell id="_WiKw5B8QnHbDTdf4BYn-2" value="x.L1" style="text;html=1;align=center;verticalAlign=middle;whiteSpace=wrap;rounded=0;" vertex="1" parent="1">
          <mxGeometry x="130" y="135" width="60" height="30" as="geometry" />
        </mxCell>
        <mxCell id="_WiKw5B8QnHbDTdf4BYn-3" value="x.L3" style="text;html=1;align=center;verticalAlign=middle;whiteSpace=wrap;rounded=0;" vertex="1" parent="1">
          <mxGeometry x="130" y="176" width="60" height="30" as="geometry" />
        </mxCell>
        <mxCell id="_WiKw5B8QnHbDTdf4BYn-4" style="edgeStyle=orthogonalEdgeStyle;rounded=0;orthogonalLoop=1;jettySize=auto;html=1;entryX=0.5;entryY=0;entryDx=0;entryDy=0;" edge="1" parent="1" source="_WiKw5B8QnHbDTdf4BYn-5" target="_WiKw5B8QnHbDTdf4BYn-59">
          <mxGeometry relative="1" as="geometry" />
        </mxCell>
        <mxCell id="_WiKw5B8QnHbDTdf4BYn-5" value="+" style="ellipse;whiteSpace=wrap;html=1;aspect=fixed;" vertex="1" parent="1">
          <mxGeometry x="220" y="160" width="20" height="20" as="geometry" />
        </mxCell>
        <mxCell id="_WiKw5B8QnHbDTdf4BYn-6" value="" style="endArrow=none;html=1;rounded=0;" edge="1" parent="1">
          <mxGeometry width="50" height="50" relative="1" as="geometry">
            <mxPoint x="180" y="190" as="sourcePoint" />
            <mxPoint x="230" y="190" as="targetPoint" />
          </mxGeometry>
        </mxCell>
        <mxCell id="_WiKw5B8QnHbDTdf4BYn-7" value="" style="endArrow=none;html=1;rounded=0;" edge="1" parent="1">
          <mxGeometry width="50" height="50" relative="1" as="geometry">
            <mxPoint x="180" y="150" as="sourcePoint" />
            <mxPoint x="230" y="150.2" as="targetPoint" />
          </mxGeometry>
        </mxCell>
        <mxCell id="_WiKw5B8QnHbDTdf4BYn-8" value="" style="endArrow=classic;html=1;rounded=0;horizontal=1;fontSize=5;fontFamily=Georgia;endSize=2;entryX=0.5;entryY=0;entryDx=0;entryDy=0;" edge="1" parent="1" target="_WiKw5B8QnHbDTdf4BYn-5">
          <mxGeometry width="50" height="50" relative="1" as="geometry">
            <mxPoint x="230" y="150" as="sourcePoint" />
            <mxPoint x="229.9" y="153" as="targetPoint" />
          </mxGeometry>
        </mxCell>
        <mxCell id="_WiKw5B8QnHbDTdf4BYn-9" value="" style="endArrow=classic;html=1;rounded=0;entryX=0.5;entryY=1;entryDx=0;entryDy=0;endSize=2;" edge="1" parent="1" target="_WiKw5B8QnHbDTdf4BYn-5">
          <mxGeometry width="50" height="50" relative="1" as="geometry">
            <mxPoint x="230" y="190" as="sourcePoint" />
            <mxPoint x="290" y="180" as="targetPoint" />
          </mxGeometry>
        </mxCell>
        <mxCell id="_WiKw5B8QnHbDTdf4BYn-10" value="x.L11" style="text;html=1;align=center;verticalAlign=middle;whiteSpace=wrap;rounded=0;" vertex="1" parent="1">
          <mxGeometry x="130" y="206" width="60" height="30" as="geometry" />
        </mxCell>
        <mxCell id="_WiKw5B8QnHbDTdf4BYn-11" value="x.L22" style="text;html=1;align=center;verticalAlign=middle;whiteSpace=wrap;rounded=0;" vertex="1" parent="1">
          <mxGeometry x="130" y="247" width="60" height="30" as="geometry" />
        </mxCell>
        <mxCell id="_WiKw5B8QnHbDTdf4BYn-12" style="edgeStyle=orthogonalEdgeStyle;rounded=0;orthogonalLoop=1;jettySize=auto;html=1;entryX=0.5;entryY=1;entryDx=0;entryDy=0;" edge="1" parent="1" source="_WiKw5B8QnHbDTdf4BYn-13" target="_WiKw5B8QnHbDTdf4BYn-59">
          <mxGeometry relative="1" as="geometry" />
        </mxCell>
        <mxCell id="_WiKw5B8QnHbDTdf4BYn-13" value="+" style="ellipse;whiteSpace=wrap;html=1;aspect=fixed;" vertex="1" parent="1">
          <mxGeometry x="220" y="231" width="20" height="20" as="geometry" />
        </mxCell>
        <mxCell id="_WiKw5B8QnHbDTdf4BYn-14" value="" style="endArrow=none;html=1;rounded=0;" edge="1" parent="1">
          <mxGeometry width="50" height="50" relative="1" as="geometry">
            <mxPoint x="180" y="261" as="sourcePoint" />
            <mxPoint x="230" y="261" as="targetPoint" />
          </mxGeometry>
        </mxCell>
        <mxCell id="_WiKw5B8QnHbDTdf4BYn-15" value="" style="endArrow=none;html=1;rounded=0;" edge="1" parent="1">
          <mxGeometry width="50" height="50" relative="1" as="geometry">
            <mxPoint x="180" y="221" as="sourcePoint" />
            <mxPoint x="230" y="221.2" as="targetPoint" />
          </mxGeometry>
        </mxCell>
        <mxCell id="_WiKw5B8QnHbDTdf4BYn-16" value="" style="endArrow=classic;html=1;rounded=0;horizontal=1;fontSize=5;fontFamily=Georgia;endSize=2;entryX=0.5;entryY=0;entryDx=0;entryDy=0;" edge="1" parent="1" target="_WiKw5B8QnHbDTdf4BYn-13">
          <mxGeometry width="50" height="50" relative="1" as="geometry">
            <mxPoint x="230" y="221" as="sourcePoint" />
            <mxPoint x="229.9" y="224" as="targetPoint" />
          </mxGeometry>
        </mxCell>
        <mxCell id="_WiKw5B8QnHbDTdf4BYn-17" value="" style="endArrow=classic;html=1;rounded=0;entryX=0.5;entryY=1;entryDx=0;entryDy=0;endSize=2;" edge="1" parent="1" target="_WiKw5B8QnHbDTdf4BYn-13">
          <mxGeometry width="50" height="50" relative="1" as="geometry">
            <mxPoint x="230" y="261" as="sourcePoint" />
            <mxPoint x="290" y="251" as="targetPoint" />
          </mxGeometry>
        </mxCell>
        <mxCell id="_WiKw5B8QnHbDTdf4BYn-18" value="x.L29" style="text;html=1;align=center;verticalAlign=middle;whiteSpace=wrap;rounded=0;" vertex="1" parent="1">
          <mxGeometry x="130" y="280" width="60" height="30" as="geometry" />
        </mxCell>
        <mxCell id="_WiKw5B8QnHbDTdf4BYn-19" value="x.L30" style="text;html=1;align=center;verticalAlign=middle;whiteSpace=wrap;rounded=0;" vertex="1" parent="1">
          <mxGeometry x="130" y="321" width="60" height="30" as="geometry" />
        </mxCell>
        <mxCell id="_WiKw5B8QnHbDTdf4BYn-86" style="edgeStyle=orthogonalEdgeStyle;rounded=0;orthogonalLoop=1;jettySize=auto;html=1;entryX=0.5;entryY=1;entryDx=0;entryDy=0;" edge="1" parent="1" source="_WiKw5B8QnHbDTdf4BYn-21" target="_WiKw5B8QnHbDTdf4BYn-85">
          <mxGeometry relative="1" as="geometry" />
        </mxCell>
        <mxCell id="_WiKw5B8QnHbDTdf4BYn-21" value="+" style="ellipse;whiteSpace=wrap;html=1;aspect=fixed;" vertex="1" parent="1">
          <mxGeometry x="220" y="305" width="20" height="20" as="geometry" />
        </mxCell>
        <mxCell id="_WiKw5B8QnHbDTdf4BYn-22" value="" style="endArrow=none;html=1;rounded=0;" edge="1" parent="1">
          <mxGeometry width="50" height="50" relative="1" as="geometry">
            <mxPoint x="180" y="335" as="sourcePoint" />
            <mxPoint x="230" y="335" as="targetPoint" />
          </mxGeometry>
        </mxCell>
        <mxCell id="_WiKw5B8QnHbDTdf4BYn-23" value="" style="endArrow=none;html=1;rounded=0;" edge="1" parent="1">
          <mxGeometry width="50" height="50" relative="1" as="geometry">
            <mxPoint x="180" y="295" as="sourcePoint" />
            <mxPoint x="230" y="295.2" as="targetPoint" />
          </mxGeometry>
        </mxCell>
        <mxCell id="_WiKw5B8QnHbDTdf4BYn-24" value="" style="endArrow=classic;html=1;rounded=0;horizontal=1;fontSize=5;fontFamily=Georgia;endSize=2;entryX=0.5;entryY=0;entryDx=0;entryDy=0;" edge="1" parent="1" target="_WiKw5B8QnHbDTdf4BYn-21">
          <mxGeometry width="50" height="50" relative="1" as="geometry">
            <mxPoint x="230" y="295" as="sourcePoint" />
            <mxPoint x="229.9" y="298" as="targetPoint" />
          </mxGeometry>
        </mxCell>
        <mxCell id="_WiKw5B8QnHbDTdf4BYn-25" value="" style="endArrow=classic;html=1;rounded=0;entryX=0.5;entryY=1;entryDx=0;entryDy=0;endSize=2;" edge="1" parent="1" target="_WiKw5B8QnHbDTdf4BYn-21">
          <mxGeometry width="50" height="50" relative="1" as="geometry">
            <mxPoint x="230" y="335" as="sourcePoint" />
            <mxPoint x="290" y="325" as="targetPoint" />
          </mxGeometry>
        </mxCell>
        <mxCell id="_WiKw5B8QnHbDTdf4BYn-26" value="x.L8" style="text;html=1;align=center;verticalAlign=middle;whiteSpace=wrap;rounded=0;" vertex="1" parent="1">
          <mxGeometry x="130" y="351" width="60" height="30" as="geometry" />
        </mxCell>
        <mxCell id="_WiKw5B8QnHbDTdf4BYn-27" value="x.L16" style="text;html=1;align=center;verticalAlign=middle;whiteSpace=wrap;rounded=0;" vertex="1" parent="1">
          <mxGeometry x="130" y="392" width="60" height="30" as="geometry" />
        </mxCell>
        <mxCell id="_WiKw5B8QnHbDTdf4BYn-84" style="edgeStyle=orthogonalEdgeStyle;rounded=0;orthogonalLoop=1;jettySize=auto;html=1;entryX=0.5;entryY=0;entryDx=0;entryDy=0;" edge="1" parent="1" source="_WiKw5B8QnHbDTdf4BYn-29" target="_WiKw5B8QnHbDTdf4BYn-61">
          <mxGeometry relative="1" as="geometry" />
        </mxCell>
        <mxCell id="_WiKw5B8QnHbDTdf4BYn-29" value="+" style="ellipse;whiteSpace=wrap;html=1;aspect=fixed;" vertex="1" parent="1">
          <mxGeometry x="220" y="376" width="20" height="20" as="geometry" />
        </mxCell>
        <mxCell id="_WiKw5B8QnHbDTdf4BYn-30" value="" style="endArrow=none;html=1;rounded=0;" edge="1" parent="1">
          <mxGeometry width="50" height="50" relative="1" as="geometry">
            <mxPoint x="180" y="406" as="sourcePoint" />
            <mxPoint x="230" y="406" as="targetPoint" />
          </mxGeometry>
        </mxCell>
        <mxCell id="_WiKw5B8QnHbDTdf4BYn-31" value="" style="endArrow=none;html=1;rounded=0;" edge="1" parent="1">
          <mxGeometry width="50" height="50" relative="1" as="geometry">
            <mxPoint x="180" y="366" as="sourcePoint" />
            <mxPoint x="230" y="366.2" as="targetPoint" />
          </mxGeometry>
        </mxCell>
        <mxCell id="_WiKw5B8QnHbDTdf4BYn-32" value="" style="endArrow=classic;html=1;rounded=0;horizontal=1;fontSize=5;fontFamily=Georgia;endSize=2;entryX=0.5;entryY=0;entryDx=0;entryDy=0;" edge="1" parent="1" target="_WiKw5B8QnHbDTdf4BYn-29">
          <mxGeometry width="50" height="50" relative="1" as="geometry">
            <mxPoint x="230" y="366" as="sourcePoint" />
            <mxPoint x="229.9" y="369" as="targetPoint" />
          </mxGeometry>
        </mxCell>
        <mxCell id="_WiKw5B8QnHbDTdf4BYn-33" value="" style="endArrow=classic;html=1;rounded=0;entryX=0.5;entryY=1;entryDx=0;entryDy=0;endSize=2;" edge="1" parent="1" target="_WiKw5B8QnHbDTdf4BYn-29">
          <mxGeometry width="50" height="50" relative="1" as="geometry">
            <mxPoint x="230" y="406" as="sourcePoint" />
            <mxPoint x="290" y="396" as="targetPoint" />
          </mxGeometry>
        </mxCell>
        <mxCell id="_WiKw5B8QnHbDTdf4BYn-34" value="&lt;div&gt;x.L18&lt;/div&gt;" style="text;html=1;align=center;verticalAlign=middle;whiteSpace=wrap;rounded=0;" vertex="1" parent="1">
          <mxGeometry x="130" y="422" width="60" height="30" as="geometry" />
        </mxCell>
        <mxCell id="_WiKw5B8QnHbDTdf4BYn-35" value="x.L24" style="text;html=1;align=center;verticalAlign=middle;whiteSpace=wrap;rounded=0;" vertex="1" parent="1">
          <mxGeometry x="130" y="463" width="60" height="30" as="geometry" />
        </mxCell>
        <mxCell id="_WiKw5B8QnHbDTdf4BYn-83" style="edgeStyle=orthogonalEdgeStyle;rounded=0;orthogonalLoop=1;jettySize=auto;html=1;entryX=0.5;entryY=1;entryDx=0;entryDy=0;" edge="1" parent="1" source="_WiKw5B8QnHbDTdf4BYn-37" target="_WiKw5B8QnHbDTdf4BYn-61">
          <mxGeometry relative="1" as="geometry" />
        </mxCell>
        <mxCell id="_WiKw5B8QnHbDTdf4BYn-37" value="+" style="ellipse;whiteSpace=wrap;html=1;aspect=fixed;" vertex="1" parent="1">
          <mxGeometry x="220" y="447" width="20" height="20" as="geometry" />
        </mxCell>
        <mxCell id="_WiKw5B8QnHbDTdf4BYn-38" value="" style="endArrow=none;html=1;rounded=0;" edge="1" parent="1">
          <mxGeometry width="50" height="50" relative="1" as="geometry">
            <mxPoint x="180" y="477" as="sourcePoint" />
            <mxPoint x="230" y="477" as="targetPoint" />
          </mxGeometry>
        </mxCell>
        <mxCell id="_WiKw5B8QnHbDTdf4BYn-39" value="" style="endArrow=none;html=1;rounded=0;" edge="1" parent="1">
          <mxGeometry width="50" height="50" relative="1" as="geometry">
            <mxPoint x="180" y="437" as="sourcePoint" />
            <mxPoint x="230" y="437.2" as="targetPoint" />
          </mxGeometry>
        </mxCell>
        <mxCell id="_WiKw5B8QnHbDTdf4BYn-40" value="" style="endArrow=classic;html=1;rounded=0;horizontal=1;fontSize=5;fontFamily=Georgia;endSize=2;entryX=0.5;entryY=0;entryDx=0;entryDy=0;" edge="1" parent="1" target="_WiKw5B8QnHbDTdf4BYn-37">
          <mxGeometry width="50" height="50" relative="1" as="geometry">
            <mxPoint x="230" y="437" as="sourcePoint" />
            <mxPoint x="229.9" y="440" as="targetPoint" />
          </mxGeometry>
        </mxCell>
        <mxCell id="_WiKw5B8QnHbDTdf4BYn-41" value="" style="endArrow=classic;html=1;rounded=0;entryX=0.5;entryY=1;entryDx=0;entryDy=0;endSize=2;" edge="1" parent="1" target="_WiKw5B8QnHbDTdf4BYn-37">
          <mxGeometry width="50" height="50" relative="1" as="geometry">
            <mxPoint x="230" y="477" as="sourcePoint" />
            <mxPoint x="290" y="467" as="targetPoint" />
          </mxGeometry>
        </mxCell>
        <mxCell id="_WiKw5B8QnHbDTdf4BYn-87" style="edgeStyle=orthogonalEdgeStyle;rounded=0;orthogonalLoop=1;jettySize=auto;html=1;entryX=0.5;entryY=0;entryDx=0;entryDy=0;" edge="1" parent="1" source="_WiKw5B8QnHbDTdf4BYn-59" target="_WiKw5B8QnHbDTdf4BYn-85">
          <mxGeometry relative="1" as="geometry" />
        </mxCell>
        <mxCell id="_WiKw5B8QnHbDTdf4BYn-59" value="+" style="ellipse;whiteSpace=wrap;html=1;aspect=fixed;" vertex="1" parent="1">
          <mxGeometry x="262" y="194" width="20" height="20" as="geometry" />
        </mxCell>
        <mxCell id="_WiKw5B8QnHbDTdf4BYn-90" style="edgeStyle=orthogonalEdgeStyle;rounded=0;orthogonalLoop=1;jettySize=auto;html=1;entryX=0.5;entryY=0;entryDx=0;entryDy=0;" edge="1" parent="1" source="_WiKw5B8QnHbDTdf4BYn-61" target="_WiKw5B8QnHbDTdf4BYn-88">
          <mxGeometry relative="1" as="geometry" />
        </mxCell>
        <mxCell id="_WiKw5B8QnHbDTdf4BYn-61" value="+" style="ellipse;whiteSpace=wrap;html=1;aspect=fixed;" vertex="1" parent="1">
          <mxGeometry x="262" y="410" width="20" height="20" as="geometry" />
        </mxCell>
        <mxCell id="_WiKw5B8QnHbDTdf4BYn-66" value="x.L26" style="text;html=1;align=center;verticalAlign=middle;whiteSpace=wrap;rounded=0;" vertex="1" parent="1">
          <mxGeometry x="130" y="500" width="60" height="30" as="geometry" />
        </mxCell>
        <mxCell id="_WiKw5B8QnHbDTdf4BYn-67" value="" style="endArrow=none;html=1;rounded=0;" edge="1" parent="1">
          <mxGeometry width="50" height="50" relative="1" as="geometry">
            <mxPoint x="182" y="514.71" as="sourcePoint" />
            <mxPoint x="292" y="514.71" as="targetPoint" />
          </mxGeometry>
        </mxCell>
        <mxCell id="_WiKw5B8QnHbDTdf4BYn-68" value="" style="endArrow=classic;html=1;rounded=0;entryX=0.5;entryY=1;entryDx=0;entryDy=0;" edge="1" parent="1">
          <mxGeometry width="50" height="50" relative="1" as="geometry">
            <mxPoint x="310" y="513" as="sourcePoint" />
            <mxPoint x="310" y="493" as="targetPoint" />
          </mxGeometry>
        </mxCell>
        <mxCell id="_WiKw5B8QnHbDTdf4BYn-69" value="" style="endArrow=none;html=1;rounded=0;" edge="1" parent="1">
          <mxGeometry width="50" height="50" relative="1" as="geometry">
            <mxPoint x="310" y="515" as="sourcePoint" />
            <mxPoint x="310" y="505" as="targetPoint" />
          </mxGeometry>
        </mxCell>
        <mxCell id="_WiKw5B8QnHbDTdf4BYn-74" style="edgeStyle=orthogonalEdgeStyle;rounded=0;orthogonalLoop=1;jettySize=auto;html=1;entryX=0;entryY=0.5;entryDx=0;entryDy=0;" edge="1" parent="1" source="_WiKw5B8QnHbDTdf4BYn-75" target="_WiKw5B8QnHbDTdf4BYn-76">
          <mxGeometry relative="1" as="geometry" />
        </mxCell>
        <mxCell id="_WiKw5B8QnHbDTdf4BYn-75" value="-" style="ellipse;whiteSpace=wrap;html=1;aspect=fixed;" vertex="1" parent="1">
          <mxGeometry x="340" y="355" width="20" height="20" as="geometry" />
        </mxCell>
        <mxCell id="_WiKw5B8QnHbDTdf4BYn-76" value="ст" style="rounded=0;whiteSpace=wrap;html=1;" vertex="1" parent="1">
          <mxGeometry x="380" y="358.5" width="30" height="13" as="geometry" />
        </mxCell>
        <mxCell id="_WiKw5B8QnHbDTdf4BYn-77" value="" style="endArrow=classic;html=1;rounded=0;" edge="1" parent="1">
          <mxGeometry width="50" height="50" relative="1" as="geometry">
            <mxPoint x="410" y="364.94000000000005" as="sourcePoint" />
            <mxPoint x="440" y="365" as="targetPoint" />
          </mxGeometry>
        </mxCell>
        <mxCell id="_WiKw5B8QnHbDTdf4BYn-78" value="" style="endArrow=none;html=1;rounded=0;" edge="1" parent="1">
          <mxGeometry width="50" height="50" relative="1" as="geometry">
            <mxPoint x="412" y="376" as="sourcePoint" />
            <mxPoint x="432" y="354" as="targetPoint" />
          </mxGeometry>
        </mxCell>
        <mxCell id="_WiKw5B8QnHbDTdf4BYn-79" value="&lt;font style=&quot;font-size: 6px;&quot;&gt;32&lt;/font&gt;" style="text;html=1;align=center;verticalAlign=middle;whiteSpace=wrap;rounded=0;" vertex="1" parent="1">
          <mxGeometry x="406" y="353" width="30" height="8" as="geometry" />
        </mxCell>
        <mxCell id="_WiKw5B8QnHbDTdf4BYn-80" value="Y" style="text;html=1;align=center;verticalAlign=middle;whiteSpace=wrap;rounded=0;" vertex="1" parent="1">
          <mxGeometry x="420" y="351" width="60" height="30" as="geometry" />
        </mxCell>
        <mxCell id="_WiKw5B8QnHbDTdf4BYn-91" style="edgeStyle=orthogonalEdgeStyle;rounded=0;orthogonalLoop=1;jettySize=auto;html=1;entryX=0.5;entryY=0;entryDx=0;entryDy=0;" edge="1" parent="1" source="_WiKw5B8QnHbDTdf4BYn-85" target="_WiKw5B8QnHbDTdf4BYn-75">
          <mxGeometry relative="1" as="geometry" />
        </mxCell>
        <mxCell id="_WiKw5B8QnHbDTdf4BYn-85" value="+" style="ellipse;whiteSpace=wrap;html=1;aspect=fixed;" vertex="1" parent="1">
          <mxGeometry x="300" y="257" width="20" height="20" as="geometry" />
        </mxCell>
        <mxCell id="_WiKw5B8QnHbDTdf4BYn-92" style="edgeStyle=orthogonalEdgeStyle;rounded=0;orthogonalLoop=1;jettySize=auto;html=1;entryX=0.5;entryY=1;entryDx=0;entryDy=0;" edge="1" parent="1" source="_WiKw5B8QnHbDTdf4BYn-88" target="_WiKw5B8QnHbDTdf4BYn-75">
          <mxGeometry relative="1" as="geometry" />
        </mxCell>
        <mxCell id="_WiKw5B8QnHbDTdf4BYn-88" value="+" style="ellipse;whiteSpace=wrap;html=1;aspect=fixed;" vertex="1" parent="1">
          <mxGeometry x="300" y="473" width="20" height="20" as="geometry" />
        </mxCell>
        <mxCell id="_WiKw5B8QnHbDTdf4BYn-89" value="" style="endArrow=none;html=1;rounded=0;" edge="1" parent="1">
          <mxGeometry width="50" height="50" relative="1" as="geometry">
            <mxPoint x="200" y="514.89" as="sourcePoint" />
            <mxPoint x="310" y="514.89" as="targetPoint" />
          </mxGeometry>
        </mxCell>
      </root>
    </mxGraphModel>
  </diagram>
</mxfile>
